<?xml version="1.0" encoding="UTF-8" standalone="no"?>
<!DOCTYPE svg PUBLIC "-//W3C//DTD SVG 1.1//EN" "http://www.w3.org/Graphics/SVG/1.1/DTD/svg11.dtd">
<svg width="100%" height="100%" viewBox="0 0 876 179" version="1.1" xmlns="http://www.w3.org/2000/svg" xmlns:xlink="http://www.w3.org/1999/xlink" xml:space="preserve" xmlns:serif="http://www.serif.com/" style="fill-rule:evenodd;clip-rule:evenodd;stroke-linejoin:round;stroke-miterlimit:2;">
  <style>
    <![CDATA[
       #main-text path {
        animation: color-change 3s 2;
        fill: magenta !important;
      }
      #main-text g:nth-child(1) path { animation-delay: .5s }
      #main-text g:nth-child(2) path { animation-delay: 1s }
      #main-text g:nth-child(3) path { animation-delay: 1.5s }
      #main-text g:nth-child(4) path { animation-delay: 2s }
      #main-text g:nth-child(5) path { animation-delay: 2.5s }
      #main-text g:nth-child(6) path { animation-delay: 3s }
      #main-text g:nth-child(7) path { animation-delay: 3.5s }
      #main-text g:nth-child(8) path { animation-delay: 4s }
      #main-text g:nth-child(9) path { animation-delay: 4.5s }

      @keyframes color-change {
        0% { fill: red; }
        14% { fill: yellow; }
        28% { fill: green; }
        42% { fill: cyan; }
        56% { fill: blue; }
        70% { fill: magenta; }
        100% { fill: red; }
      }
    ]]>
  </style>
    <g id="Artboard1" transform="matrix(1,0,0,1,-63.1685,-201.574)">
        <rect x="63.169" y="201.574" width="875.223" height="178.892" style="fill:none;"/>
        <g transform="matrix(1.69491,0,0,1.69081,-162.245,13.2368)">
            <ellipse cx="221.153" cy="164.552" rx="18.369" ry="18.609" style="fill:rgb(227,68,68);"/>
        </g>
        <g transform="matrix(1.44758,0,0,1.47335,19.6369,53.0671)">
            <ellipse cx="221.153" cy="164.552" rx="18.369" ry="18.609" style="fill:rgb(0,255,16);"/>
        </g>
        <g transform="matrix(1.69491,0,0,1.73977,208.106,7.9133)">
            <ellipse cx="221.153" cy="164.552" rx="18.369" ry="18.609" style="fill:rgb(0,217,255);"/>
        </g>
        <g transform="matrix(131.209,0,0,131.209,170.111,332.063)">
            <path d="M0.338,0.004C0.285,0.004 0.237,-0.008 0.196,-0.032C0.154,-0.055 0.121,-0.088 0.098,-0.13C0.074,-0.171 0.062,-0.219 0.062,-0.273C0.062,-0.328 0.074,-0.376 0.098,-0.418C0.121,-0.459 0.154,-0.492 0.196,-0.516C0.237,-0.539 0.285,-0.551 0.338,-0.551C0.391,-0.551 0.439,-0.539 0.48,-0.516C0.521,-0.492 0.554,-0.459 0.578,-0.418C0.602,-0.376 0.614,-0.328 0.614,-0.273C0.614,-0.219 0.602,-0.171 0.579,-0.13C0.555,-0.088 0.522,-0.055 0.481,-0.032C0.44,-0.008 0.392,0.004 0.338,0.004ZM0.338,-0.079C0.374,-0.079 0.406,-0.087 0.434,-0.104C0.462,-0.121 0.484,-0.143 0.5,-0.173C0.516,-0.202 0.524,-0.235 0.524,-0.273C0.524,-0.311 0.516,-0.345 0.5,-0.374C0.484,-0.403 0.462,-0.426 0.434,-0.443C0.406,-0.46 0.374,-0.468 0.338,-0.468C0.302,-0.468 0.27,-0.46 0.242,-0.443C0.214,-0.426 0.192,-0.403 0.176,-0.374C0.16,-0.345 0.152,-0.311 0.152,-0.273C0.152,-0.235 0.16,-0.202 0.176,-0.173C0.192,-0.143 0.214,-0.121 0.242,-0.104C0.27,-0.087 0.302,-0.079 0.338,-0.079Z" style="fill:rgb(154,24,26);fill-rule:nonzero;"/>
        </g>
        <g transform="matrix(131.209,0,0,131.209,293.448,332.063)">
            <path d="M0.338,0.004C0.285,0.004 0.237,-0.008 0.196,-0.032C0.154,-0.055 0.121,-0.088 0.098,-0.13C0.074,-0.171 0.062,-0.219 0.062,-0.273C0.062,-0.328 0.074,-0.376 0.098,-0.418C0.121,-0.459 0.154,-0.492 0.196,-0.516C0.237,-0.539 0.285,-0.551 0.338,-0.551C0.391,-0.551 0.439,-0.539 0.48,-0.516C0.521,-0.492 0.554,-0.459 0.578,-0.418C0.602,-0.376 0.614,-0.328 0.614,-0.273C0.614,-0.219 0.602,-0.171 0.579,-0.13C0.555,-0.088 0.522,-0.055 0.481,-0.032C0.44,-0.008 0.392,0.004 0.338,0.004ZM0.338,-0.079C0.374,-0.079 0.406,-0.087 0.434,-0.104C0.462,-0.121 0.484,-0.143 0.5,-0.173C0.516,-0.202 0.524,-0.235 0.524,-0.273C0.524,-0.311 0.516,-0.345 0.5,-0.374C0.484,-0.403 0.462,-0.426 0.434,-0.443C0.406,-0.46 0.374,-0.468 0.338,-0.468C0.302,-0.468 0.27,-0.46 0.242,-0.443C0.214,-0.426 0.192,-0.403 0.176,-0.374C0.16,-0.345 0.152,-0.311 0.152,-0.273C0.152,-0.235 0.16,-0.202 0.176,-0.173C0.192,-0.143 0.214,-0.121 0.242,-0.104C0.27,-0.087 0.302,-0.079 0.338,-0.079Z" style="fill:rgb(12,189,19);fill-rule:nonzero;"/>
        </g>
        <g transform="matrix(131.209,0,0,131.209,537.104,332.063)">
            <path d="M0.338,0.004C0.285,0.004 0.237,-0.008 0.196,-0.032C0.154,-0.055 0.121,-0.088 0.098,-0.13C0.074,-0.171 0.062,-0.219 0.062,-0.273C0.062,-0.328 0.074,-0.376 0.098,-0.418C0.121,-0.459 0.154,-0.492 0.196,-0.516C0.237,-0.539 0.285,-0.551 0.338,-0.551C0.391,-0.551 0.439,-0.539 0.48,-0.516C0.521,-0.492 0.554,-0.459 0.578,-0.418C0.602,-0.376 0.614,-0.328 0.614,-0.273C0.614,-0.219 0.602,-0.171 0.579,-0.13C0.555,-0.088 0.522,-0.055 0.481,-0.032C0.44,-0.008 0.392,0.004 0.338,0.004ZM0.338,-0.079C0.374,-0.079 0.406,-0.087 0.434,-0.104C0.462,-0.121 0.484,-0.143 0.5,-0.173C0.516,-0.202 0.524,-0.235 0.524,-0.273C0.524,-0.311 0.516,-0.345 0.5,-0.374C0.484,-0.403 0.462,-0.426 0.434,-0.443C0.406,-0.46 0.374,-0.468 0.338,-0.468C0.302,-0.468 0.27,-0.46 0.242,-0.443C0.214,-0.426 0.192,-0.403 0.176,-0.374C0.16,-0.345 0.152,-0.311 0.152,-0.273C0.152,-0.235 0.16,-0.202 0.176,-0.173C0.192,-0.143 0.214,-0.121 0.242,-0.104C0.27,-0.087 0.302,-0.079 0.338,-0.079Z" style="fill:rgb(0,136,184);fill-rule:nonzero;"/>
        </g>
        <g id="main-text" transform="matrix(1.82235,0,0,0.416412,-184.444,168.817)">
            <g transform="matrix(72,0,0,315.095,141.639,392.032)">
                <path d="M0.45,0.01C0.396,0.01 0.345,0 0.299,-0.021C0.252,-0.041 0.211,-0.069 0.176,-0.106C0.14,-0.143 0.113,-0.185 0.093,-0.234C0.073,-0.283 0.063,-0.335 0.063,-0.391C0.063,-0.446 0.073,-0.498 0.093,-0.547C0.112,-0.595 0.14,-0.637 0.175,-0.674C0.21,-0.711 0.251,-0.739 0.298,-0.76C0.345,-0.781 0.395,-0.791 0.45,-0.791C0.501,-0.791 0.545,-0.784 0.583,-0.771C0.62,-0.757 0.658,-0.735 0.695,-0.704C0.7,-0.7 0.704,-0.696 0.707,-0.691C0.709,-0.686 0.71,-0.681 0.71,-0.676C0.709,-0.671 0.708,-0.666 0.707,-0.661C0.706,-0.651 0.702,-0.643 0.695,-0.637C0.687,-0.63 0.678,-0.627 0.667,-0.626C0.656,-0.625 0.645,-0.629 0.635,-0.637C0.61,-0.659 0.583,-0.676 0.556,-0.687C0.528,-0.698 0.493,-0.704 0.45,-0.704C0.409,-0.704 0.371,-0.696 0.336,-0.679C0.3,-0.662 0.269,-0.64 0.242,-0.611C0.215,-0.582 0.193,-0.549 0.178,-0.512C0.163,-0.474 0.155,-0.434 0.155,-0.391C0.155,-0.348 0.163,-0.307 0.178,-0.269C0.193,-0.231 0.215,-0.198 0.242,-0.169C0.269,-0.14 0.3,-0.118 0.336,-0.102C0.371,-0.086 0.409,-0.078 0.45,-0.078C0.485,-0.078 0.519,-0.084 0.55,-0.096C0.58,-0.107 0.61,-0.124 0.639,-0.145C0.65,-0.153 0.66,-0.157 0.671,-0.156C0.682,-0.155 0.691,-0.15 0.699,-0.143C0.706,-0.135 0.71,-0.124 0.71,-0.111C0.71,-0.104 0.709,-0.098 0.707,-0.093C0.704,-0.087 0.7,-0.082 0.695,-0.077C0.66,-0.047 0.621,-0.025 0.58,-0.011C0.539,0.003 0.495,0.01 0.45,0.01Z" style="fill:white;fill-rule:nonzero;"/>
            </g>
            <g transform="matrix(72,0,0,315.095,243.231,392.032)">
                <path d="M0.216,0C0.187,0 0.162,-0.008 0.14,-0.024C0.118,-0.039 0.101,-0.061 0.089,-0.088C0.076,-0.115 0.07,-0.146 0.07,-0.181L0.07,-0.735C0.07,-0.749 0.074,-0.76 0.083,-0.769C0.091,-0.777 0.102,-0.781 0.116,-0.781C0.13,-0.781 0.141,-0.777 0.15,-0.769C0.158,-0.76 0.162,-0.749 0.162,-0.735L0.162,-0.181C0.162,-0.155 0.167,-0.134 0.177,-0.117C0.187,-0.1 0.2,-0.092 0.216,-0.092L0.241,-0.092C0.254,-0.092 0.264,-0.088 0.271,-0.08C0.278,-0.071 0.282,-0.06 0.282,-0.046C0.282,-0.032 0.276,-0.021 0.265,-0.013C0.254,-0.004 0.239,0 0.222,0L0.216,0Z" style="fill:white;fill-rule:nonzero;"/>
            </g>
            <g transform="matrix(72,0,0,315.095,310.911,392.032)">
                <path d="M0.133,-0.34C0.134,-0.381 0.144,-0.417 0.164,-0.449C0.183,-0.481 0.21,-0.506 0.243,-0.525C0.276,-0.544 0.312,-0.553 0.351,-0.553C0.388,-0.553 0.415,-0.547 0.434,-0.536C0.453,-0.524 0.46,-0.509 0.456,-0.492C0.453,-0.483 0.449,-0.476 0.444,-0.471C0.438,-0.466 0.431,-0.464 0.423,-0.463C0.415,-0.462 0.406,-0.463 0.397,-0.465C0.356,-0.472 0.319,-0.471 0.287,-0.462C0.254,-0.453 0.229,-0.439 0.21,-0.418C0.191,-0.397 0.182,-0.371 0.182,-0.34L0.133,-0.34ZM0.136,0C0.121,0 0.11,-0.004 0.102,-0.012C0.094,-0.019 0.09,-0.031 0.09,-0.046L0.09,-0.501C0.09,-0.516 0.094,-0.527 0.102,-0.535C0.11,-0.543 0.121,-0.547 0.136,-0.547C0.151,-0.547 0.163,-0.543 0.171,-0.536C0.178,-0.528 0.182,-0.516 0.182,-0.501L0.182,-0.046C0.182,-0.031 0.178,-0.02 0.171,-0.012C0.163,-0.004 0.151,0 0.136,0Z" style="fill:white;fill-rule:nonzero;"/>
            </g>
            <g transform="matrix(72,0,0,315.095,345.255,392.032)">
                <path d="M0.366,0.004C0.314,0.004 0.267,-0.008 0.226,-0.032C0.184,-0.056 0.151,-0.089 0.127,-0.131C0.103,-0.173 0.091,-0.22 0.09,-0.273L0.09,-0.734C0.09,-0.748 0.094,-0.759 0.103,-0.768C0.112,-0.777 0.123,-0.781 0.137,-0.781C0.151,-0.781 0.162,-0.777 0.171,-0.768C0.18,-0.759 0.184,-0.748 0.184,-0.734L0.184,-0.456C0.207,-0.485 0.235,-0.509 0.269,-0.526C0.303,-0.543 0.341,-0.551 0.382,-0.551C0.431,-0.551 0.476,-0.539 0.515,-0.515C0.554,-0.49 0.586,-0.457 0.609,-0.416C0.632,-0.374 0.643,-0.327 0.643,-0.274C0.643,-0.221 0.631,-0.174 0.607,-0.132C0.582,-0.09 0.549,-0.057 0.508,-0.033C0.466,-0.008 0.419,0.004 0.366,0.004ZM0.366,-0.079C0.401,-0.079 0.433,-0.088 0.461,-0.105C0.489,-0.122 0.511,-0.145 0.528,-0.175C0.544,-0.204 0.552,-0.237 0.552,-0.274C0.552,-0.311 0.544,-0.345 0.528,-0.374C0.511,-0.403 0.489,-0.426 0.461,-0.443C0.433,-0.46 0.401,-0.468 0.366,-0.468C0.331,-0.468 0.299,-0.46 0.271,-0.443C0.243,-0.426 0.221,-0.403 0.205,-0.374C0.189,-0.345 0.181,-0.311 0.181,-0.274C0.181,-0.237 0.189,-0.204 0.205,-0.175C0.221,-0.145 0.243,-0.122 0.271,-0.105C0.299,-0.088 0.331,-0.079 0.366,-0.079Z" style="fill:white;fill-rule:nonzero;"/>
            </g>
            <g transform="matrix(72,0,0,315.095,444.615,392.032)">
                <path d="M0.294,0C0.26,0 0.23,-0.009 0.203,-0.026C0.175,-0.043 0.154,-0.066 0.139,-0.095C0.123,-0.124 0.115,-0.157 0.115,-0.194L0.115,-0.675C0.115,-0.688 0.119,-0.699 0.128,-0.708C0.137,-0.717 0.148,-0.721 0.161,-0.721C0.175,-0.721 0.186,-0.717 0.195,-0.708C0.204,-0.699 0.208,-0.688 0.208,-0.675L0.208,-0.194C0.208,-0.165 0.216,-0.14 0.233,-0.121C0.249,-0.102 0.269,-0.092 0.294,-0.092L0.326,-0.092C0.337,-0.092 0.347,-0.088 0.355,-0.079C0.362,-0.07 0.366,-0.059 0.366,-0.046C0.366,-0.033 0.361,-0.022 0.351,-0.013C0.341,-0.004 0.328,0 0.313,0L0.294,0ZM0.063,-0.447C0.05,-0.447 0.04,-0.451 0.032,-0.459C0.024,-0.466 0.02,-0.475 0.02,-0.486C0.02,-0.499 0.024,-0.509 0.032,-0.516C0.04,-0.523 0.05,-0.527 0.063,-0.527L0.302,-0.527C0.315,-0.527 0.325,-0.523 0.333,-0.516C0.341,-0.509 0.345,-0.499 0.345,-0.486C0.345,-0.475 0.341,-0.466 0.333,-0.459C0.325,-0.451 0.315,-0.447 0.302,-0.447L0.063,-0.447Z" style="fill:white;fill-rule:nonzero;"/>
            </g>
            <g transform="matrix(72,0,0,315.095,473.487,392.032)">
                <path d="M0.115,0.016C0.098,0.016 0.083,0.01 0.07,-0.004C0.057,-0.017 0.05,-0.032 0.05,-0.049C0.05,-0.068 0.057,-0.084 0.07,-0.097C0.083,-0.11 0.098,-0.116 0.115,-0.116C0.134,-0.116 0.149,-0.11 0.162,-0.097C0.175,-0.084 0.181,-0.068 0.181,-0.049C0.181,-0.032 0.175,-0.017 0.162,-0.004C0.149,0.01 0.134,0.016 0.115,0.016Z" style="fill:white;fill-rule:nonzero;"/>
            </g>
            <g transform="matrix(72,0,0,315.095,490.119,392.032)">
                <path d="M0.473,0C0.466,0 0.46,-0.001 0.455,-0.004C0.449,-0.006 0.443,-0.01 0.438,-0.017L0.263,-0.23L0.229,-0.263L0.055,-0.474C0.047,-0.484 0.043,-0.495 0.043,-0.506C0.042,-0.517 0.046,-0.527 0.053,-0.535C0.059,-0.543 0.07,-0.547 0.083,-0.547C0.098,-0.547 0.109,-0.542 0.118,-0.532L0.288,-0.324L0.314,-0.301L0.502,-0.071C0.511,-0.06 0.516,-0.048 0.515,-0.038C0.514,-0.027 0.51,-0.018 0.502,-0.011C0.494,-0.004 0.484,0 0.473,0ZM0.087,0C0.074,0 0.064,-0.004 0.057,-0.012C0.05,-0.019 0.046,-0.029 0.046,-0.04C0.046,-0.051 0.05,-0.062 0.059,-0.073L0.234,-0.292L0.284,-0.222L0.12,-0.015C0.111,-0.005 0.1,0 0.087,0ZM0.329,-0.258L0.267,-0.314L0.432,-0.53C0.437,-0.537 0.443,-0.541 0.449,-0.544C0.454,-0.546 0.461,-0.547 0.468,-0.547C0.481,-0.547 0.492,-0.543 0.499,-0.535C0.505,-0.526 0.509,-0.516 0.509,-0.505C0.508,-0.493 0.504,-0.482 0.495,-0.471L0.329,-0.258Z" style="fill:white;fill-rule:nonzero;"/>
            </g>
            <g transform="matrix(72,0,0,315.095,530.007,392.032)">
                <path d="M0.187,0.239C0.18,0.239 0.173,0.237 0.165,0.234C0.138,0.222 0.13,0.203 0.142,0.176L0.453,-0.521C0.466,-0.546 0.485,-0.554 0.511,-0.543C0.539,-0.531 0.547,-0.512 0.534,-0.485L0.222,0.211C0.215,0.23 0.203,0.239 0.187,0.239ZM0.302,-0.02C0.291,-0.015 0.28,-0.015 0.27,-0.019C0.259,-0.022 0.251,-0.03 0.245,-0.042L0.018,-0.486C0.012,-0.498 0.011,-0.509 0.016,-0.52C0.02,-0.531 0.028,-0.538 0.04,-0.543C0.051,-0.548 0.062,-0.549 0.073,-0.545C0.084,-0.541 0.092,-0.533 0.097,-0.522L0.316,-0.078C0.322,-0.066 0.324,-0.055 0.323,-0.044C0.321,-0.033 0.314,-0.025 0.302,-0.02Z" style="fill:white;fill-rule:nonzero;"/>
            </g>
            <g transform="matrix(72,0,0,315.095,569.031,392.032)">
                <path d="M0.14,-0.021L0.073,-0.073L0.424,-0.53L0.486,-0.475L0.14,-0.021ZM0.108,0C0.079,0 0.065,-0.014 0.065,-0.043C0.065,-0.072 0.079,-0.086 0.108,-0.086L0.459,-0.086C0.488,-0.086 0.502,-0.072 0.502,-0.043C0.502,-0.014 0.488,0 0.459,0L0.108,0ZM0.1,-0.461C0.071,-0.461 0.057,-0.475 0.057,-0.504C0.057,-0.533 0.071,-0.547 0.1,-0.547L0.451,-0.547C0.48,-0.547 0.494,-0.533 0.494,-0.504C0.494,-0.475 0.48,-0.461 0.451,-0.461L0.1,-0.461Z" style="fill:white;fill-rule:nonzero;"/>
            </g>
        </g>
    </g>
</svg>
